<svg xmlns="http://www.w3.org/2000/svg" viewBox="0 0 100 100">
  <defs>
    <linearGradient id="grad" x1="0%" y1="0%" x2="100%" y2="100%">
      <stop offset="0%" style="stop-color:#4f46e5;stop-opacity:1" />
      <stop offset="100%" style="stop-color:#9333ea;stop-opacity:1" />
    </linearGradient>
  </defs>
  <circle cx="50" cy="50" r="45" fill="url(#grad)" />
  <path d="M50 25a12 12 0 0 1 12 12v16a12 12 0 0 1-24 0V37a12 12 0 0 1 12-12z" fill="white"/>
  <path d="M74 53v-4a2 2 0 0 0-4 0v4a20 20 0 0 1-40 0v-4a2 2 0 0 0-4 0v4a24 24 0 0 0 22 23.5V86h-8a2 2 0 0 0 0 4h20a2 2 0 0 0 0-4h-8v-9.5A24 24 0 0 0 74 53z" fill="white"/>
</svg>
